<svg version="1.1" id="Layer_1" xmlns="http://www.w3.org/2000/svg" xmlns:xlink="http://www.w3.org/1999/xlink" viewBox="0 0 476 1070"  width="2rem" height="2rem" >

<path fill="currentColor"
	d="
M200.178085,1063.891602
	C180.418518,1059.864014 161.344635,1054.691284 144.722198,1043.818726
	C127.617714,1032.630981 110.739555,1020.836121 98.128830,1004.252136
	C85.474007,987.610168 79.266190,968.385925 77.109047,947.904297
	C73.139153,910.210876 77.132957,872.977600 86.553200,836.497009
	C103.061829,772.565979 120.546867,708.887512 137.470703,645.062927
	C143.688354,621.614258 150.225891,598.210510 155.254990,574.497375
	C160.746567,548.603516 162.252853,522.309082 155.907196,496.220947
	C151.571045,478.394196 137.108490,466.355560 118.777733,463.969574
	C82.026665,459.186035 46.401142,463.223083 11.955183,477.078644
	C9.194249,478.189209 6.375600,479.156311 2.827840,480.469971
	C5.400546,469.762695 7.754997,459.636200 10.281975,449.552917
	C12.221718,441.812897 14.656461,434.187317 16.339846,426.396057
	C17.424667,421.375153 20.195839,418.673981 24.828966,417.028717
	C56.182926,405.894440 87.305069,394.067017 118.883591,383.616272
	C153.940384,372.014435 189.856949,364.097687 227.130615,365.378387
	C265.751007,366.705292 301.739166,376.747192 333.271210,399.862457
	C359.066132,418.771942 374.002136,444.634399 379.945374,475.813751
	C385.579163,505.369659 383.338654,534.865479 378.482758,564.252014
	C370.816528,610.645813 356.602234,655.430237 344.557098,700.742859
	C331.656097,749.275208 318.183594,797.658508 305.652985,846.285339
	C298.492126,874.074097 296.561401,902.426636 300.798492,931.009399
	C303.784912,951.155640 314.208710,962.291199 334.056732,967.165588
	C366.572021,975.150513 398.481384,971.852356 430.125183,962.564453
	C439.351227,959.856506 448.526398,956.975220 458.496124,953.938416
	C456.534180,960.739502 454.744812,967.029236 452.903931,973.303772
	C450.011871,983.161438 447.826752,993.310303 443.977386,1002.781067
	C439.581543,1013.596497 429.977020,1019.998352 419.439819,1023.475830
	C383.600494,1035.303833 348.997803,1050.884766 312.079559,1059.404541
	C282.399719,1066.253906 252.342667,1069.551270 221.857971,1066.920776
	C214.741180,1066.306519 207.687332,1064.962891 200.178085,1063.891602
z"/>
<path fill="currentColor"
    d="
M238.397034,50.396561
	C259.023041,29.531599 282.621582,14.314279 311.611969,9.628785
	C354.685486,2.667139 394.033081,11.109866 427.789734,40.228458
	C473.014648,79.239555 483.088135,142.726669 450.757141,192.912582
	C428.190247,227.942230 394.969727,246.876617 353.573853,251.067871
	C318.770844,254.591614 286.634399,246.470840 258.002655,226.436859
	C220.449188,200.160202 203.437805,163.891174 207.748856,118.038231
	C210.182907,92.149368 220.397873,69.674820 238.397034,50.396561
z" />
</svg>