<?xml version="1.0"?>
<svg width="64" height="64" xmlns="http://www.w3.org/2000/svg" xmlns:svg="http://www.w3.org/2000/svg">
  <g class="layer">
    <title>Layer 1</title>
    <path d="m28.02,0.28c-4.86,0.6 -9.57,2.35 -13.63,5.05c-6.31,4.19 -10.89,10.32 -13.04,17.44c-0.52,1.65 -1.02,4.17 -1.2,5.85c-0.17,1.57 -0.17,5.39 0,6.96c1.35,12.67 10.31,23.5 22.55,27.2c1.65,0.52 4.16,1.02 5.85,1.2c1.56,0.17 5.39,0.17 6.95,0c7.4,-0.78 14.26,-4.15 19.54,-9.57c3.61,-3.74 6.17,-8.07 7.66,-12.98c0.92,-3.04 1.33,-5.85 1.33,-9.33c0,-2.61 -0.13,-4.05 -0.58,-6.31c-2.26,-11.51 -10.84,-20.96 -22.1,-24.37c-1.65,-0.52 -4.16,-1.02 -5.85,-1.2c-1.64,-0.18 -5.86,-0.14 -7.48,0.06m8.07,12.37c1.68,0.45 3.01,1.68 3.42,3.22c0.24,0.85 0.14,2.15 -0.24,2.91c-0.71,1.49 -2.38,2.57 -4.11,2.67c-3.81,0.21 -6.39,-3.67 -4.45,-6.73c0.33,-0.51 1.31,-1.42 1.84,-1.7c0.99,-0.51 2.46,-0.66 3.54,-0.37m-3.75,13.35c1.61,0.34 2.91,1.31 3.58,2.7c0.42,0.82 0.42,0.85 0.4,2.59c-0.01,2.01 0,1.95 -1.48,7.25c-1.28,4.5 -1.57,5.81 -1.57,7.11c0,1.85 0.54,2.43 2.43,2.54c0.94,0.06 2.31,-0.16 3.21,-0.52c0.19,-0.08 0.19,0.01 -0.02,0.88c-0.13,0.54 -0.28,1.02 -0.33,1.07c-0.22,0.21 -4.29,1.65 -5.14,1.81c-1.15,0.23 -3.11,0.23 -4.05,0c-2.06,-0.5 -3.63,-1.86 -4.1,-3.56c-0.2,-0.77 -0.16,-2.62 0.08,-3.89c0.11,-0.59 0.71,-2.84 1.32,-5c1.28,-4.53 1.6,-6 1.6,-7.23c0,-1.45 -0.38,-2.16 -1.27,-2.41c-0.89,-0.24 -2.46,-0.15 -3.51,0.17c-0.53,0.18 -0.97,0.28 -0.97,0.23c0.02,-0.35 0.53,-1.95 0.65,-2.03c0.29,-0.19 3.2,-1.24 4.14,-1.49c1.81,-0.5 3.39,-0.57 5.03,-0.22" fill="currentColor" fill-rule="evenodd" id="Info" />
  </g>
</svg>