<?xml version="1.0" encoding="UTF-8"?>
<!--Generator: Apple Native CoreSVG 232.5-->
<!DOCTYPE svg
PUBLIC "-//W3C//DTD SVG 1.1//EN"
       "http://www.w3.org/Graphics/SVG/1.1/DTD/svg11.dtd">
<svg version="1.1" xmlns="http://www.w3.org/2000/svg" xmlns:xlink="http://www.w3.org/1999/xlink" width="113.13" height="113.288">
 <g>
  <rect height="113.288" opacity="0" width="113.13" x="0" y="0"/>
  <path d="M17.9649 113.288L95.1314 113.288C107.021 113.288 113.13 107.152 113.13 95.4429L113.13 18.0371C113.13 6.32764 107.021 0.191894 95.1314 0.191894L17.9649 0.191894C6.10889 0.191894 0 6.2334 0 18.0371L0 95.4429C0 107.231 6.10889 113.288 17.9649 113.288ZM18.145 106.674C10.6128 106.674 6.61427 102.728 6.61427 95.1094L6.61427 18.3706C6.61427 10.7525 10.6128 6.80617 18.145 6.80617L94.9849 6.80617C102.295 6.80617 106.516 10.7525 106.516 18.3706L106.516 95.1094C106.516 102.728 102.295 106.674 94.9849 106.674Z" fill="#ffffff" fill-opacity="0.85"/>
  <path d="M45.2295 91.1265L71.083 91.1265C72.875 91.1265 74.1904 89.7842 74.1904 88.0864C74.1904 86.4072 72.875 85.0312 71.083 85.0312L61.4297 85.0312L61.4297 48.085C61.4297 45.9946 60.2827 44.4653 58.169 44.4653L45.8965 44.4653C44.1382 44.4653 42.7891 45.8076 42.7891 47.4868C42.7891 49.1846 44.1382 50.5269 45.8965 50.5269L54.8828 50.5269L54.8828 85.0312L45.2295 85.0312C43.4375 85.0312 42.1221 86.4072 42.1221 88.0864C42.1221 89.7842 43.4375 91.1265 45.2295 91.1265ZM56.3501 32.4395C59.8496 32.4395 62.6182 29.6792 62.6182 26.2319C62.6182 22.7324 59.8496 19.8965 56.3501 19.8965C52.8843 19.8965 50.082 22.7324 50.082 26.2319C50.082 29.6792 52.8843 32.4395 56.3501 32.4395Z" fill="#ffffff" fill-opacity="0.85"/>
 </g>
</svg>
