<svg width="64" height="64" viewBox="0 0 64 64" xmlns="http://www.w3.org/2000/svg">
  fill-rule="evenodd"
  <path fill-rule="evenodd" id="Info" fill="#bcb4a6" stroke="none" d="M 28.023243 0.27951 C 23.160505 0.879669 18.447773 2.630127 14.385077 5.330811 C 8.084768 9.519379 3.497044 15.645935 1.34694 22.772736 C 0.834415 24.423157 0.33439 26.93631 0.146881 28.624237 C -0.015627 30.187134 -0.015627 34.013092 0.146881 35.575989 C 1.496947 48.254211 10.459885 59.08197 22.697981 62.782898 C 24.348063 63.295532 26.860685 63.795654 28.548267 63.983215 C 30.110844 64.145752 33.936028 64.145752 35.498604 63.983215 C 42.898968 63.195526 49.761803 59.832153 55.037064 54.405762 C 58.649738 50.667328 61.212364 46.341217 62.699936 41.42749 C 63.624977 38.389191 64.025002 35.575989 64.025002 32.100098 C 64.025002 29.486938 63.899994 28.049072 63.44997 25.786011 C 61.187359 14.283081 52.611946 4.830688 41.348892 1.417297 C 39.698811 0.904694 37.186188 0.404541 35.498604 0.21701 C 33.861027 0.041962 29.63582 0.079468 28.023243 0.27951 M 36.086136 12.645172 C 37.77372 13.095276 39.098785 14.333099 39.511303 15.870972 C 39.748814 16.721191 39.648811 18.021515 39.273792 18.78421 C 38.561256 20.272095 36.886173 21.347382 35.161091 21.447388 C 31.348406 21.659943 28.773279 17.783966 30.710873 14.720703 C 31.035891 14.208069 32.023438 13.295319 32.548466 13.020264 C 33.536011 12.507629 35.011082 12.357605 36.086136 12.645172 M 32.335953 25.998566 C 33.948532 26.336151 35.248592 27.311401 35.92363 28.699249 C 36.336147 29.524445 36.336147 29.549469 36.323647 31.287415 C 36.311146 33.300415 36.323647 33.237885 34.836075 38.539246 C 33.561012 43.040375 33.273499 44.35321 33.273499 45.653564 C 33.273499 47.504028 33.811024 48.079163 35.698616 48.191711 C 36.636162 48.254211 38.01123 48.029144 38.911274 47.666565 C 39.098785 47.591553 39.098785 47.679077 38.886272 48.554291 C 38.761265 49.091919 38.611259 49.567047 38.561256 49.617065 C 38.336246 49.82962 34.273548 51.267487 33.423508 51.430023 C 32.273449 51.65509 30.310854 51.65509 29.373308 51.430023 C 27.310707 50.929901 25.73563 49.567047 25.273108 47.866608 C 25.073097 47.103912 25.1106 45.253448 25.348112 43.978119 C 25.460617 43.390472 26.060646 41.139893 26.673176 38.976868 C 27.948238 34.450714 28.273254 32.975342 28.273254 31.750031 C 28.273254 30.299652 27.885735 29.586975 26.998192 29.336914 C 26.110649 29.099335 24.535572 29.186859 23.485519 29.511932 C 22.960495 29.686981 22.522974 29.787018 22.522974 29.737 C 22.535475 29.386902 23.047998 27.786499 23.173004 27.711487 C 23.46052 27.523956 26.373161 26.473663 27.310707 26.223602 C 29.123297 25.72348 30.698372 25.648468 32.335953 25.998566" />
</svg>